<svg xmlns="http://www.w3.org/2000/svg" xmlns:xlink="http://www.w3.org/1999/xlink" width="500" zoomAndPan="magnify" viewBox="0 0 375 374.999991" height="500" preserveAspectRatio="xMidYMid meet" version="1.0"><defs><clipPath id="8140c662d9"><path d="M 45.6875 19.066406 L 192 19.066406 L 192 141 L 45.6875 141 Z M 45.6875 19.066406 " clip-rule="nonzero"/></clipPath><clipPath id="7ed5fbd0db"><path d="M 191 19.066406 L 337.4375 19.066406 L 337.4375 141 L 191 141 Z M 191 19.066406 " clip-rule="nonzero"/></clipPath><clipPath id="d9d32db53e"><path d="M 45.6875 234 L 192 234 L 192 355.816406 L 45.6875 355.816406 Z M 45.6875 234 " clip-rule="nonzero"/></clipPath><clipPath id="a0508f5ed9"><path d="M 191 234 L 337.4375 234 L 337.4375 355.816406 L 191 355.816406 Z M 191 234 " clip-rule="nonzero"/></clipPath><clipPath id="ab892c5869"><path d="M 45.6875 103 L 110 103 L 110 272 L 45.6875 272 Z M 45.6875 103 " clip-rule="nonzero"/></clipPath></defs><path fill="#a784a5" d="M 127.773438 224.347656 L 191.609375 261.203125 L 255.441406 224.347656 L 191.609375 187.496094 L 127.773438 224.347656 " fill-opacity="1" fill-rule="nonzero"/><path fill="#521e51" d="M 127.773438 150.640625 L 127.773438 224.347656 L 191.609375 187.496094 L 191.609375 113.785156 L 127.773438 150.640625 " fill-opacity="1" fill-rule="nonzero"/><path fill="#ecd4ea" d="M 191.609375 113.785156 L 191.609375 187.496094 L 255.441406 224.347656 L 255.441406 150.640625 L 191.609375 113.785156 " fill-opacity="1" fill-rule="nonzero"/><g clip-path="url(#8140c662d9)"><path fill="#521e51" d="M 191.609375 93.175781 L 191.609375 19.070312 L 45.746094 103.28125 L 109.925781 140.335938 L 191.609375 93.175781 " fill-opacity="1" fill-rule="nonzero"/></g><g clip-path="url(#7ed5fbd0db)"><path fill="#a784a5" d="M 273.289062 140.335938 L 337.46875 103.28125 L 191.609375 19.070312 L 191.609375 93.175781 L 273.289062 140.335938 " fill-opacity="1" fill-rule="nonzero"/></g><g clip-path="url(#d9d32db53e)"><path fill="#521e51" d="M 109.925781 234.652344 L 45.746094 271.707031 L 191.609375 355.917969 L 191.609375 281.8125 L 109.925781 234.652344 " fill-opacity="1" fill-rule="nonzero"/></g><g clip-path="url(#a0508f5ed9)"><path fill="#a784a5" d="M 191.609375 281.8125 L 191.609375 355.917969 L 337.46875 271.707031 L 273.289062 234.652344 L 191.609375 281.8125 " fill-opacity="1" fill-rule="nonzero"/></g><g clip-path="url(#ab892c5869)"><path fill="#a784a5" d="M 109.925781 140.335938 L 45.746094 103.28125 L 45.746094 271.707031 L 109.925781 234.652344 L 109.925781 140.335938 " fill-opacity="1" fill-rule="nonzero"/></g></svg>